HIERARCHY
ROOT hip
{
  OFFSET 0 0 0
  CHANNELS 6 Xposition Yposition Zposition Zrotation Yrotation Xrotation
  JOINT abdomen
  {
    OFFSET 0 20.6881 -0.73152
    CHANNELS 3 Zrotation Xrotation Yrotation
    JOINT chest
    {
      OFFSET 0 11.7043 -0.48768
      CHANNELS 3 Zrotation Xrotation Yrotation
      JOINT neck
      {
        OFFSET 0 22.1894 -2.19456
        CHANNELS 3 Zrotation Xrotation Yrotation
        JOINT head
        {
          OFFSET -0.24384 7.07133 1.2192
          CHANNELS 3 Zrotation Xrotation Yrotation
          JOINT leftEye
          {
            OFFSET 4.14528 8.04674 8.04672
            CHANNELS 3 Zrotation Xrotation Yrotation
            End Site
            {
              OFFSET 1 0 0
            }
          }
          JOINT rightEye
          {
            OFFSET -3.6576 8.04674 8.04672
            CHANNELS 3 Zrotation Xrotation Yrotation
            End Site
            {
              OFFSET 1 0 0
            }
          }
        }
      }
      JOINT rCollar
      {
        OFFSET -2.68224 19.2634 -4.8768
        CHANNELS 3 Zrotation Xrotation Yrotation
        JOINT rShldr
        {
          OFFSET -8.77824 -1.95073 1.46304
          CHANNELS 3 Zrotation Xrotation Yrotation
          JOINT rForeArm
          {
            OFFSET -28.1742 -1.7115 0.48768
            CHANNELS 3 Zrotation Xrotation Yrotation
            JOINT rHand
            {
              OFFSET -22.5879 0.773209 7.07136
              CHANNELS 3 Zrotation Xrotation Yrotation
              JOINT rThumb1
              {
                OFFSET -1.2192 -0.487915 3.41376
                CHANNELS 3 Zrotation Xrotation Yrotation
                JOINT rThumb2
                {
                  OFFSET -3.37035 -0.52449 3.41376
                  CHANNELS 3 Zrotation Xrotation Yrotation
                  End Site
                  {
                    OFFSET -1.78271 -1.18214 1.43049
                  }
                }
              }
              JOINT rIndex1
              {
                OFFSET -7.75947 0.938293 5.60832
                CHANNELS 3 Zrotation Xrotation Yrotation
                JOINT rIndex2
                {
                  OFFSET -2.54057 -0.884171 1.56538
                  CHANNELS 3 Zrotation Xrotation Yrotation
                  End Site
                  {
                    OFFSET -1.62519 -0.234802 1.16502
                  }
                }
              }
              JOINT rMid1
              {
                OFFSET -8.24714 1.18213 3.41376
                CHANNELS 3 Zrotation Xrotation Yrotation
                JOINT rMid2
                {
                  OFFSET -3.10165 -0.590103 1.0647
                  CHANNELS 3 Zrotation Xrotation Yrotation
                  End Site
                  {
                    OFFSET -2.48547 -0.328903 0.83742
                  }
                }
              }
              JOINT rRing1
              {
                OFFSET -8.82822 0.546677 1.51678
                CHANNELS 3 Zrotation Xrotation Yrotation
                JOINT rRing2
                {
                  OFFSET -2.60934 -0.819778 -0.0198488
                  CHANNELS 3 Zrotation Xrotation Yrotation
                  End Site
                  {
                    OFFSET -2.33842 -0.294052 0.168128
                  }
                }
              }
              JOINT rPinky1
              {
                OFFSET -8.27202 -0.0477905 -0.4584
                CHANNELS 3 Zrotation Xrotation Yrotation
                JOINT rPinky2
                {
                  OFFSET -1.82734 -0.647385 -0.700984
                  CHANNELS 3 Zrotation Xrotation Yrotation
                  End Site
                  {
                    OFFSET -1.69225 -0.51767 -0.607171
                  }
                }
              }
            }
          }
        }
      }
      JOINT lCollar
      {
        OFFSET 2.68224 19.2634 -4.8768
        CHANNELS 3 Zrotation Xrotation Yrotation
        JOINT lShldr
        {
          OFFSET 8.77824 -1.95073 1.46304
          CHANNELS 3 Zrotation Xrotation Yrotation
          JOINT lForeArm
          {
            OFFSET 28.1742 -1.7115 0.48768
            CHANNELS 3 Zrotation Xrotation Yrotation
            JOINT lHand
            {
              OFFSET 22.5879 0.773209 7.07136
              CHANNELS 3 Zrotation Xrotation Yrotation
              JOINT lThumb1
              {
                OFFSET 1.2192 -0.487915 3.41376
                CHANNELS 3 Zrotation Xrotation Yrotation
                JOINT lThumb2
                {
                  OFFSET 3.37035 -0.52449 3.41376
                  CHANNELS 3 Zrotation Xrotation Yrotation
                  End Site
                  {
                    OFFSET 1.78271 -1.18214 1.43049
                  }
                }
              }
              JOINT lIndex1
              {
                OFFSET 7.75947 0.938293 5.60832
                CHANNELS 3 Zrotation Xrotation Yrotation
                JOINT lIndex2
                {
                  OFFSET 2.54057 -0.884171 1.56538
                  CHANNELS 3 Zrotation Xrotation Yrotation
                  End Site
                  {
                    OFFSET 1.62519 -0.234802 1.16502
                  }
                }
              }
              JOINT lMid1
              {
                OFFSET 8.24714 1.18213 3.41376
                CHANNELS 3 Zrotation Xrotation Yrotation
                JOINT lMid2
                {
                  OFFSET 3.10165 -0.590103 1.0647
                  CHANNELS 3 Zrotation Xrotation Yrotation
                  End Site
                  {
                    OFFSET 2.48547 -0.328903 0.83742
                  }
                }
              }
              JOINT lRing1
              {
                OFFSET 8.82822 0.546677 1.51678
                CHANNELS 3 Zrotation Xrotation Yrotation
                JOINT lRing2
                {
                  OFFSET 2.60934 -0.819778 -0.0198488
                  CHANNELS 3 Zrotation Xrotation Yrotation
                  End Site
                  {
                    OFFSET 2.33842 -0.294052 0.168128
                  }
                }
              }
              JOINT lPinky1
              {
                OFFSET 8.27202 -0.0477905 -0.4584
                CHANNELS 3 Zrotation Xrotation Yrotation
                JOINT lPinky2
                {
                  OFFSET 1.82734 -0.647385 -0.700984
                  CHANNELS 3 Zrotation Xrotation Yrotation
                  End Site
                  {
                    OFFSET 1.69225 -0.51767 -0.607171
                  }
                }
              }
            }
          }
        }
      }
    }
  }
  JOINT rButtock
  {
    OFFSET -8.77824 4.35084 1.2192
    CHANNELS 3 Zrotation Xrotation Yrotation
    JOINT rThigh
    {
      OFFSET 0 -1.70687 -2.19456
      CHANNELS 3 Zrotation Xrotation Yrotation
      JOINT rShin
      {
        OFFSET 0 -36.8199 0.73152
        CHANNELS 3 Zrotation Xrotation Yrotation
        JOINT rFoot
        {
          OFFSET 0.73152 -45.1104 -5.12064
          CHANNELS 3 Zrotation Xrotation Yrotation
          End Site
          {
            OFFSET -1.1221 -3.69964 12.103
          }
        }
      }
    }
  }
  JOINT lButtock
  {
    OFFSET 8.77824 4.35084 1.2192
    CHANNELS 3 Zrotation Xrotation Yrotation
    JOINT lThigh
    {
      OFFSET 0 -1.70687 -2.19456
      CHANNELS 3 Zrotation Xrotation Yrotation
      JOINT lShin
      {
        OFFSET 0 -36.8199 0.73152
        CHANNELS 3 Zrotation Xrotation Yrotation
        JOINT lFoot
        {
          OFFSET -0.73152 -45.1104 -5.12064
          CHANNELS 3 Zrotation Xrotation Yrotation
          End Site
          {
            OFFSET 1.1221 -3.69964 12.103
          }
        }
      }
    }
  }
}
MOTION
Frames:	4
Frame Time:	0.00833333
-20.3188 82.3848 11.2338 1.2313 8.3934 -0.012 -2.65852 6.71083 -0.632173 1.37162 -2.36082 -0.323977 -11.7059 -12.491 -3.65545 10.1907 3.84177 -1.86238 -0.0 0.0 0.0 -0.0 0.0 0.0 -1.85316e-14 -9.88457e-15 2.02909e-13 18.8473 -34.895 -29.5888 -16.316 -8.98413 30.3427 -0.09924 8.94116 1.26703 1.20066e-09 2.26054e-10 9.93225e-10 2.08168e-09 3.91161e-10 1.70804e-09 1.20067e-09 2.2606e-10 9.93217e-10 7.73091 5.47488 0.417314 1.20066e-09 2.2606e-10 9.93221e-10 2.90554 0.965183 0.102902 1.20067e-09 2.26061e-10 9.93221e-10 10.2786 0.731801 0.0259123 1.20066e-09 2.26061e-10 9.93225e-10 2.22167 -0.733487 -0.20892 -1.85453e-14 -9.88234e-15 2.02782e-13 -19.6036 -27.9742 20.1376 15.5246 -8.25296 -28.6755 0.0398085 -5.6995 0.80367 9.26682e-10 -1.95413e-10 7.28875e-10 1.59841e-09 -3.36695e-10 1.263e-09 9.26676e-10 -1.95414e-10 7.28879e-10 -7.73091 5.47488 -0.417314 9.26682e-10 -1.95415e-10 7.28877e-10 -2.90554 0.965183 -0.102902 9.26681e-10 -1.95416e-10 7.28877e-10 -10.2786 0.731801 -0.0259123 9.26691e-10 -1.95414e-10 7.28868e-10 -2.22167 -0.733487 0.20892 -2.03217e-16 0.0 -3.88251e-19 -7.59706 -14.4872 -5.54957 -0.244573 33.5298 0.585719 -1.85798 -15.7567 -3.91346 2.03217e-16 0.0 3.88251e-19 5.00744 -15.3948 -4.23761 0.0937816 30.136 -0.463902 0.50377 -10.5771 1.01131
-20.1441 82.4083 11.2807 1.2381 8.3576 -0.2014 -2.78091 6.76932 -0.664015 1.39502 -2.46058 -0.334843 -11.6999 -12.3752 -3.60876 10.2512 3.93031 -1.80458 -0.0 0.0 0.0 -0.0 0.0 0.0 -1.86435e-14 -1.82897e-14 3.44345e-13 17.7235 -34.8535 -29.4408 -16.3981 -9.06237 30.5175 -0.102471 9.09198 1.28874 2.16366e-09 3.50551e-10 1.6766e-09 3.75104e-09 6.05625e-10 2.88146e-09 2.16366e-09 3.50558e-10 1.67659e-09 7.73091 5.47488 0.417314 2.16366e-09 3.50557e-10 1.67659e-09 2.90554 0.965183 0.102902 2.16367e-09 3.50558e-10 1.67659e-09 10.2786 0.731801 0.0259123 2.16366e-09 3.50558e-10 1.67659e-09 2.22167 -0.733487 -0.20892 -1.86796e-14 -1.8287e-14 3.44196e-13 -18.3532 -27.9791 20.1418 15.5224 -8.25103 -28.6709 0.0369437 -5.4778 0.772232 1.95279e-09 -4.40249e-10 1.40955e-09 3.36889e-09 -7.59157e-10 2.44482e-09 1.95278e-09 -4.4025e-10 1.40955e-09 -7.73091 5.47488 -0.417314 1.95279e-09 -4.40251e-10 1.40955e-09 -2.90554 0.965183 -0.102902 1.95279e-09 -4.40253e-10 1.40955e-09 -10.2786 0.731801 -0.0259123 1.9528e-09 -4.40251e-10 1.40954e-09 -2.22167 -0.733487 0.20892 -2.03217e-16 0.0 -3.88251e-19 -7.76196 -14.3502 -5.4264 -0.243838 33.4889 0.586269 -1.87447 -15.7441 -3.95964 2.03217e-16 0.0 3.88251e-19 4.85794 -15.1958 -4.06103 0.0925639 30.0951 -0.463485 0.499535 -10.6162 0.993764
-19.9427 82.4221 11.2978 1.3359 8.2803 -0.2617 -2.89363 6.76274 -0.680035 1.42974 -2.4253 -0.341923 -11.7021 -12.2695 -3.57764 10.2937 3.94061 -1.7645 -0.0 0.0 0.0 -0.0 0.0 0.0 -6.35078e-15 -1.23513e-14 3.49436e-13 16.6899 -34.8618 -29.1384 -16.4821 -9.14294 30.6969 -0.108064 9.33956 1.32444 2.49359e-09 3.74105e-10 1.9026e-09 4.32374e-09 6.4567e-10 3.26912e-09 2.4936e-09 3.7411e-10 1.9026e-09 7.73091 5.47488 0.417314 2.49359e-09 3.74109e-10 1.9026e-09 2.90554 0.965183 0.102902 2.4936e-09 3.74109e-10 1.9026e-09 10.2786 0.731801 0.0259123 2.49359e-09 3.74111e-10 1.9026e-09 2.22167 -0.733487 -0.20892 -6.39439e-15 -1.23481e-14 3.49262e-13 -17.2312 -28.0343 19.9935 15.532 -8.25961 -28.6909 0.0362129 -5.4172 0.763646 2.5216e-09 -5.21485e-10 1.66318e-09 4.35169e-09 -8.99571e-10 2.88593e-09 2.5216e-09 -5.21486e-10 1.66319e-09 -7.73091 5.47488 -0.417314 2.5216e-09 -5.21487e-10 1.66319e-09 -2.90554 0.965183 -0.102902 2.5216e-09 -5.21488e-10 1.66318e-09 -10.2786 0.731801 -0.0259123 2.52161e-09 -5.21486e-10 1.66318e-09 -2.22167 -0.733487 0.20892 -2.03217e-16 0.0 -3.88251e-19 -7.91461 -14.2364 -5.28521 -0.242825 33.4334 0.587008 -1.91068 -15.6955 -4.06357 2.03217e-16 0.0 3.88251e-19 4.70768 -15.0282 -3.85831 0.0907116 30.0748 -0.463888 0.497295 -10.6842 0.978033
-19.7634 82.4314 11.3121 1.3623 8.0924 -0.3105 -3.00131 6.71477 -0.68806 1.47023 -2.30783 -0.347113 -11.7067 -12.1646 -3.5532 10.3254 3.90965 -1.7325 -0.0 0.0 0.0 -0.0 0.0 0.0 1.44662e-14 1.48888e-15 2.74696e-13 15.7374 -34.8976 -28.6902 -16.5678 -9.22559 30.8806 -0.11595 9.66666 1.37173 2.4799e-09 3.3362e-10 1.87325e-09 4.30122e-09 5.74985e-10 3.21793e-09 2.47991e-09 3.33621e-10 1.87325e-09 7.73091 5.47488 0.417314 2.4799e-09 3.3362e-10 1.87325e-09 2.90554 0.965183 0.102902 2.4799e-09 3.3362e-10 1.87325e-09 10.2786 0.731801 0.0259123 2.4799e-09 3.33622e-10 1.87325e-09 2.22167 -0.733487 -0.20892 1.44207e-14 1.49262e-15 2.74491e-13 -16.2017 -28.1174 19.7256 15.547 -8.27302 -28.7222 0.036449 -5.43568 0.766265 2.85203e-09 -5.10012e-10 1.67742e-09 4.924e-09 -8.80159e-10 2.91191e-09 2.85202e-09 -5.10013e-10 1.67743e-09 -7.73091 5.47488 -0.417314 2.85202e-09 -5.10014e-10 1.67743e-09 -2.90554 0.965183 -0.102902 2.85202e-09 -5.10015e-10 1.67743e-09 -10.2786 0.731801 -0.0259123 2.85203e-09 -5.10012e-10 1.67742e-09 -2.22167 -0.733487 0.20892 -2.03217e-16 0.0 -3.88251e-19 -8.06123 -14.1387 -5.12664 -0.241615 33.3685 0.587966 -1.96165 -15.6204 -4.21147 2.03217e-16 0.0 3.88251e-19 4.55189 -14.8809 -3.64102 0.0884587 30.0711 -0.464915 0.496043 -10.7701 0.9624
